<?xml version="1.0" encoding="UTF-8"?>
<svg id="Layer_1" data-name="Layer 1" xmlns="http://www.w3.org/2000/svg" viewBox="0 0 245.38 249.22">
  <defs>
    <style>
      .cls-1 {
        fill: #fff8f0;
      }

      .cls-1, .cls-2 {
        stroke-width: 0px;
      }

      .cls-2 {
        fill: #f5e8e4;
      }
    </style>
  </defs>
  <path class="cls-1" d="M0,55.85V20.7S-.09,0,20.7,0h202.71s21.98-2.81,21.98,21.98v97.09s-5.93,42.4-42.4,42.4-50.88-21.38-45.36-28.17c0,0,7.7-7.69,4.74-20.74s-13.58-33.51-39.68-31.87-50.4,9.94-37.95,62.68,62.22,69.04,71.7,70.96,28.44,6.07,57.48,6.07,28.81,28.81,28.81,28.81H0V55.85Z"/>
  <g>
    <path class="cls-2" d="M10.93,237.67c.83-.06,1.67-.11,2.5-.16.83-.04,1.67-.1,2.5-.13l5-.18c1.28-.05,2.35.95,2.4,2.23.05,1.28-.95,2.35-2.23,2.4-.05,0-.11,0-.17,0l-5-.18c-.83-.02-1.67-.08-2.5-.13-.83-.04-1.67-.09-2.5-.16-1.02-.08-1.79-.97-1.71-1.99.07-.93.81-1.64,1.71-1.71Z"/>
    <path class="cls-2" d="M30.93,237.08c3.33.04,6.67.24,10,.25,1.21,0,2.19.99,2.18,2.2,0,1.21-.98,2.18-2.18,2.18-3.33,0-6.67.2-10,.25-1.35.02-2.45-1.06-2.47-2.4s1.06-2.45,2.4-2.47c.02,0,.05,0,.07,0Z"/>
    <path class="cls-2" d="M50.93,237.31l10-.04c1.24,0,2.25,1,2.26,2.24s-1,2.25-2.24,2.26h-.02l-10-.04c-1.22,0-2.2-1-2.2-2.22,0-1.21.99-2.19,2.2-2.2Z"/>
    <path class="cls-2" d="M70.93,237.23l10-.04c1.29,0,2.34,1.04,2.35,2.33,0,1.29-1.04,2.34-2.33,2.35h-.02l-10-.04c-1.27,0-2.29-1.04-2.28-2.3,0-1.26,1.03-2.28,2.28-2.28Z"/>
    <path class="cls-2" d="M90.93,237.14l10-.05c1.34,0,2.43,1.08,2.44,2.42,0,1.34-1.08,2.43-2.42,2.44h-.02l-10-.05c-1.32,0-2.38-1.08-2.37-2.39,0-1.31,1.07-2.36,2.37-2.37Z"/>
    <path class="cls-2" d="M110.93,237.04l10-.02c1.38,0,2.49,1.11,2.5,2.49s-1.11,2.49-2.49,2.5h0l-10-.02c-1.37,0-2.47-1.11-2.47-2.48,0-1.37,1.1-2.47,2.47-2.47Z"/>
    <path class="cls-2" d="M130.93,237.04l10,.02c1.36,0,2.45,1.1,2.45,2.46,0,1.36-1.09,2.45-2.45,2.45l-10,.02c-1.37,0-2.48-1.1-2.48-2.47,0-1.37,1.1-2.48,2.47-2.48h0Z"/>
    <path class="cls-2" d="M150.93,237.08l10,.03c1.33,0,2.41,1.09,2.4,2.42,0,1.33-1.08,2.4-2.4,2.4l-10,.03c-1.35,0-2.44-1.08-2.44-2.43,0-1.35,1.08-2.44,2.43-2.44h.01Z"/>
    <path class="cls-2" d="M170.93,237.14l10,.03c1.3,0,2.35,1.06,2.34,2.36,0,1.29-1.05,2.34-2.34,2.34l-10,.03c-1.31,0-2.38-1.06-2.39-2.37,0-1.31,1.06-2.38,2.37-2.39h.01Z"/>
    <path class="cls-2" d="M190.93,237.14c3.33-.07,6.67-.11,10-.04,1.34.03,2.4,1.13,2.37,2.47-.03,1.3-1.08,2.35-2.37,2.37-3.33.07-6.67.03-10-.04-1.32-.03-2.36-1.12-2.33-2.43.03-1.28,1.06-2.3,2.33-2.33Z"/>
    <path class="cls-2" d="M210.93,237.29l5,.14,5,.18c1.05.04,1.87.92,1.83,1.98-.04,1-.85,1.8-1.83,1.83l-5,.18-5,.14c-1.23.03-2.25-.94-2.29-2.17s.94-2.25,2.17-2.29c.04,0,.08,0,.12,0Z"/>
  </g>
</svg>